<svg width="19" height="15" viewBox="0 0 19 15" fill="none" xmlns="http://www.w3.org/2000/svg">
<path d="M15.3609 1.94238C14.2551 1.435 13.0693 1.06119 11.8295 0.84709C11.807 0.842957 11.7844 0.853284 11.7728 0.873937C11.6203 1.14517 11.4513 1.49902 11.3331 1.77715C9.99956 1.57751 8.67291 1.57751 7.36676 1.77715C7.24844 1.49284 7.07339 1.14517 6.9202 0.873937C6.90857 0.853973 6.88602 0.843647 6.86344 0.84709C5.62431 1.0605 4.43853 1.43432 3.33207 1.94238C3.32249 1.94651 3.31428 1.9534 3.30883 1.96235C1.05965 5.32257 0.443508 8.6002 0.745768 11.8372C0.747136 11.853 0.756025 11.8682 0.768335 11.8778C2.25228 12.9676 3.68973 13.6292 5.10049 14.0677C5.12307 14.0746 5.14699 14.0663 5.16136 14.0477C5.49507 13.592 5.79255 13.1115 6.04761 12.6062C6.06266 12.5766 6.04829 12.5415 6.01753 12.5297C5.54568 12.3508 5.09638 12.1325 4.66419 11.8847C4.63001 11.8647 4.62727 11.8158 4.65872 11.7924C4.74967 11.7243 4.84064 11.6534 4.92749 11.5818C4.9432 11.5687 4.96509 11.5659 4.98357 11.5742C7.82287 12.8705 10.8968 12.8705 13.7026 11.5742C13.721 11.5653 13.7429 11.568 13.7593 11.5811C13.8462 11.6527 13.9371 11.7243 14.0288 11.7924C14.0602 11.8158 14.0582 11.8647 14.024 11.8847C13.5918 12.1373 13.1425 12.3508 12.67 12.5291C12.6392 12.5408 12.6255 12.5766 12.6406 12.6062C12.9011 13.1108 13.1986 13.5913 13.5261 14.047C13.5398 14.0663 13.5644 14.0746 13.587 14.0677C15.0046 13.6292 16.4421 12.9676 17.926 11.8778C17.939 11.8682 17.9472 11.8537 17.9486 11.8379C18.3103 8.09556 17.3427 4.84481 15.3835 1.96303C15.3787 1.9534 15.3705 1.94651 15.3609 1.94238ZM6.47161 9.8662C5.61679 9.8662 4.91243 9.08141 4.91243 8.1176C4.91243 7.15379 5.60313 6.36899 6.47161 6.36899C7.34692 6.36899 8.04445 7.16068 8.03077 8.1176C8.03077 9.08141 7.34008 9.8662 6.47161 9.8662ZM12.2364 9.8662C11.3816 9.8662 10.6773 9.08141 10.6773 8.1176C10.6773 7.15379 11.3679 6.36899 12.2364 6.36899C13.1117 6.36899 13.8093 7.16068 13.7956 8.1176C13.7956 9.08141 13.1117 9.8662 12.2364 9.8662Z" fill="#121212"/>
</svg>
