<svg width="122" height="16" viewBox="0 0 122 16" fill="none" xmlns="http://www.w3.org/2000/svg">
<path d="M0.568182 2.39205V0.363636H10.125V2.39205H6.5625V12H4.13068V2.39205H0.568182ZM12.6672 12V3.27273H15.0138V4.79545H15.1047C15.2638 4.25379 15.5308 3.8447 15.9058 3.56818C16.2808 3.28788 16.7126 3.14773 17.2013 3.14773C17.3225 3.14773 17.4531 3.1553 17.5933 3.17045C17.7334 3.18561 17.8566 3.20644 17.9626 3.23295V5.38068C17.849 5.34659 17.6918 5.31629 17.491 5.28977C17.2903 5.26326 17.1066 5.25 16.9399 5.25C16.5838 5.25 16.2656 5.32765 15.9853 5.48295C15.7088 5.63447 15.4891 5.84659 15.3263 6.11932C15.1672 6.39205 15.0876 6.70644 15.0876 7.0625V12H12.6672ZM26.7306 8.28409V3.27273H29.1511V12H26.8272V10.4148H26.7363C26.5393 10.9261 26.2117 11.3371 25.7534 11.6477C25.2988 11.9583 24.7439 12.1136 24.0886 12.1136C23.5052 12.1136 22.992 11.9811 22.5488 11.7159C22.1056 11.4508 21.759 11.0739 21.509 10.5852C21.2628 10.0966 21.1378 9.51136 21.134 8.82955V3.27273H23.5545V8.39773C23.5583 8.91288 23.6965 9.32008 23.9693 9.61932C24.242 9.91856 24.6075 10.0682 25.0659 10.0682C25.3575 10.0682 25.6302 10.0019 25.884 9.86932C26.1378 9.73295 26.3424 9.5322 26.4977 9.26705C26.6568 9.00189 26.7344 8.67424 26.7306 8.28409ZM37.6492 3.27273V5.09091H32.3935V3.27273H37.6492ZM33.5867 1.18182H36.0072V9.31818C36.0072 9.54167 36.0412 9.71591 36.1094 9.84091C36.1776 9.96212 36.2723 10.0473 36.3935 10.0966C36.5185 10.1458 36.6625 10.1705 36.8253 10.1705C36.939 10.1705 37.0526 10.161 37.1662 10.142C37.2799 10.1193 37.367 10.1023 37.4276 10.0909L37.8083 11.892C37.6871 11.9299 37.5166 11.9735 37.2969 12.0227C37.0772 12.0758 36.8102 12.108 36.4958 12.1193C35.9125 12.142 35.4011 12.0644 34.9617 11.8864C34.5261 11.7083 34.1871 11.4318 33.9447 11.0568C33.7022 10.6818 33.5829 10.2083 33.5867 9.63636V1.18182ZM48.2979 5.76136L46.082 5.89773C46.0441 5.70833 45.9627 5.53788 45.8377 5.38636C45.7127 5.23106 45.5479 5.10795 45.3434 5.01705C45.1426 4.92235 44.9021 4.875 44.6218 4.875C44.2468 4.875 43.9305 4.95455 43.6729 5.11364C43.4153 5.26894 43.2865 5.47727 43.2865 5.73864C43.2865 5.94697 43.3699 6.12311 43.5365 6.26705C43.7032 6.41098 43.9892 6.52652 44.3945 6.61364L45.974 6.93182C46.8225 7.10606 47.4551 7.38636 47.8718 7.77273C48.2884 8.15909 48.4968 8.66667 48.4968 9.29545C48.4968 9.86742 48.3282 10.3693 47.9911 10.8011C47.6577 11.233 47.1994 11.5701 46.6161 11.8125C46.0365 12.0511 45.368 12.1705 44.6104 12.1705C43.4551 12.1705 42.5346 11.9299 41.849 11.4489C41.1672 10.964 40.7676 10.3049 40.6502 9.47159L43.0309 9.34659C43.1028 9.69886 43.2771 9.9678 43.5536 10.1534C43.8301 10.3352 44.1843 10.4261 44.6161 10.4261C45.0403 10.4261 45.3812 10.3447 45.6388 10.1818C45.9002 10.0152 46.0327 9.80114 46.0365 9.53977C46.0327 9.32008 45.9399 9.14015 45.7581 9C45.5763 8.85606 45.296 8.74621 44.9172 8.67045L43.4059 8.36932C42.5536 8.19886 41.9191 7.90341 41.5024 7.48295C41.0896 7.0625 40.8831 6.52652 40.8831 5.875C40.8831 5.31439 41.0346 4.83144 41.3377 4.42614C41.6445 4.02083 42.0744 3.70833 42.6274 3.48864C43.1843 3.26894 43.8358 3.15909 44.582 3.15909C45.6843 3.15909 46.5517 3.39205 47.1843 3.85795C47.8206 4.32386 48.1918 4.95833 48.2979 5.76136ZM52.8614 12H51.3841L55.6568 0.363636H57.1114L61.3841 12H59.9068L56.4295 2.20455H56.3386L52.8614 12ZM53.4068 7.45455H59.3614V8.70455H53.4068V7.45455ZM66.6402 12.1818C65.822 12.1818 65.1175 11.9886 64.5266 11.6023C63.9357 11.2159 63.4811 10.6837 63.163 10.0057C62.8448 9.32765 62.6857 8.55303 62.6857 7.68182C62.6857 6.79545 62.8486 6.01326 63.1743 5.33523C63.5039 4.65341 63.9622 4.12121 64.5493 3.73864C65.1402 3.35227 65.8296 3.15909 66.6175 3.15909C67.2311 3.15909 67.7842 3.27273 68.2766 3.5C68.769 3.72727 69.1724 4.04545 69.4868 4.45455C69.8012 4.86364 69.9963 5.34091 70.072 5.88636H68.7311C68.6289 5.48864 68.4016 5.13636 68.0493 4.82955C67.7008 4.51894 67.2311 4.36364 66.6402 4.36364C66.1175 4.36364 65.6592 4.5 65.2652 4.77273C64.8751 5.04167 64.5702 5.42235 64.3505 5.91477C64.1345 6.40341 64.0266 6.97727 64.0266 7.63636C64.0266 8.31061 64.1327 8.89773 64.3448 9.39773C64.5607 9.89773 64.8637 10.286 65.2539 10.5625C65.6478 10.839 66.1099 10.9773 66.6402 10.9773C66.9887 10.9773 67.305 10.9167 67.5891 10.7955C67.8732 10.6742 68.1137 10.5 68.3107 10.2727C68.5077 10.0455 68.6478 9.77273 68.7311 9.45455H70.072C69.9963 9.9697 69.8088 10.4337 69.5095 10.8466C69.2141 11.2557 68.822 11.5814 68.3334 11.8239C67.8486 12.0625 67.2842 12.1818 66.6402 12.1818ZM74.6805 12.2045C74.1274 12.2045 73.6255 12.1004 73.1748 11.892C72.724 11.6799 72.3661 11.375 72.1009 10.9773C71.8358 10.5758 71.7032 10.0909 71.7032 9.52273C71.7032 9.02273 71.8017 8.61742 71.9986 8.30682C72.1956 7.99242 72.4589 7.74621 72.7884 7.56818C73.118 7.39015 73.4816 7.25758 73.8793 7.17045C74.2808 7.07955 74.6842 7.00758 75.0895 6.95455C75.6199 6.88636 76.0498 6.83523 76.3793 6.80114C76.7127 6.76326 76.9551 6.70076 77.1066 6.61364C77.2619 6.52652 77.3395 6.375 77.3395 6.15909V6.11364C77.3395 5.55303 77.1861 5.11742 76.8793 4.80682C76.5763 4.49621 76.1161 4.34091 75.4986 4.34091C74.8585 4.34091 74.3566 4.48106 73.993 4.76136C73.6293 5.04167 73.3736 5.34091 73.2259 5.65909L71.9532 5.20455C72.1805 4.67424 72.4835 4.26136 72.8623 3.96591C73.2449 3.66667 73.6615 3.45833 74.1123 3.34091C74.5668 3.2197 75.0138 3.15909 75.4532 3.15909C75.7335 3.15909 76.0555 3.19318 76.4191 3.26136C76.7865 3.32576 77.1407 3.46023 77.4816 3.66477C77.8263 3.86932 78.1123 4.17803 78.3395 4.59091C78.5668 5.00379 78.6805 5.55682 78.6805 6.25V12H77.3395V10.8182H77.2714C77.1805 11.0076 77.0289 11.2102 76.8168 11.4261C76.6047 11.642 76.3225 11.8258 75.9702 11.9773C75.618 12.1288 75.188 12.2045 74.6805 12.2045ZM74.885 11C75.4153 11 75.8623 10.8958 76.2259 10.6875C76.5933 10.4792 76.8699 10.2102 77.0555 9.88068C77.2449 9.55114 77.3395 9.20455 77.3395 8.84091V7.61364C77.2827 7.68182 77.1577 7.74432 76.9645 7.80114C76.7752 7.85417 76.5555 7.90151 76.3055 7.94318C76.0592 7.98106 75.8187 8.01515 75.5839 8.04545C75.3528 8.07197 75.1653 8.0947 75.0214 8.11364C74.6729 8.15909 74.3471 8.23295 74.0441 8.33523C73.7449 8.43371 73.5024 8.58333 73.3168 8.78409C73.135 8.98106 73.0441 9.25 73.0441 9.59091C73.0441 10.0568 73.2164 10.4091 73.5611 10.6477C73.9096 10.8826 74.3509 11 74.885 11ZM84.5033 12.1818C83.7761 12.1818 83.134 11.9981 82.5772 11.6307C82.0204 11.2595 81.5848 10.7367 81.2704 10.0625C80.956 9.38447 80.7988 8.58333 80.7988 7.65909C80.7988 6.74242 80.956 5.94697 81.2704 5.27273C81.5848 4.59848 82.0223 4.07765 82.5829 3.71023C83.1435 3.3428 83.7912 3.15909 84.5261 3.15909C85.0943 3.15909 85.5431 3.25379 85.8727 3.44318C86.206 3.62879 86.4598 3.84091 86.634 4.07955C86.8121 4.31439 86.9503 4.50758 87.0488 4.65909H87.1624V0.363636H88.5033V12H87.2079V10.6591H87.0488C86.9503 10.8182 86.8102 11.0189 86.6283 11.2614C86.4465 11.5 86.1871 11.714 85.8499 11.9034C85.5128 12.089 85.064 12.1818 84.5033 12.1818ZM84.6852 10.9773C85.223 10.9773 85.6776 10.8371 86.0488 10.5568C86.42 10.2727 86.7022 9.88068 86.8954 9.38068C87.0886 8.87689 87.1852 8.29545 87.1852 7.63636C87.1852 6.98485 87.0905 6.41477 86.9011 5.92614C86.7117 5.43371 86.4314 5.05114 86.0602 4.77841C85.689 4.50189 85.2306 4.36364 84.6852 4.36364C84.117 4.36364 83.6435 4.50947 83.2647 4.80114C82.8897 5.08902 82.6075 5.48106 82.4181 5.97727C82.2325 6.4697 82.1397 7.02273 82.1397 7.63636C82.1397 8.25758 82.2344 8.82197 82.4238 9.32955C82.617 9.83333 82.9011 10.2348 83.2761 10.5341C83.6549 10.8295 84.1246 10.9773 84.6852 10.9773ZM94.8845 12.1818C94.0436 12.1818 93.3182 11.9962 92.7084 11.625C92.1023 11.25 91.6345 10.7273 91.3049 10.0568C90.9792 9.38258 90.8163 8.59848 90.8163 7.70455C90.8163 6.81061 90.9792 6.02273 91.3049 5.34091C91.6345 4.6553 92.0928 4.12121 92.6799 3.73864C93.2709 3.35227 93.9602 3.15909 94.7481 3.15909C95.2027 3.15909 95.6515 3.23485 96.0947 3.38636C96.5379 3.53788 96.9413 3.78409 97.3049 4.125C97.6686 4.46212 97.9584 4.90909 98.1743 5.46591C98.3902 6.02273 98.4981 6.70833 98.4981 7.52273V8.09091H91.7709V6.93182H97.1345C97.1345 6.43939 97.036 6 96.839 5.61364C96.6459 5.22727 96.3693 4.92235 96.0095 4.69886C95.6534 4.47538 95.233 4.36364 94.7481 4.36364C94.214 4.36364 93.7519 4.49621 93.3618 4.76136C92.9754 5.02273 92.678 5.36364 92.4697 5.78409C92.2614 6.20455 92.1572 6.6553 92.1572 7.13636V7.90909C92.1572 8.56818 92.2709 9.12689 92.4981 9.58523C92.7292 10.0398 93.0493 10.3864 93.4584 10.625C93.8674 10.8598 94.3428 10.9773 94.8845 10.9773C95.2368 10.9773 95.5549 10.928 95.839 10.8295C96.1269 10.7273 96.375 10.5758 96.5834 10.375C96.7917 10.1705 96.9527 9.91667 97.0663 9.61364L98.3618 9.97727C98.2254 10.4167 97.9962 10.803 97.6743 11.1364C97.3523 11.4659 96.9546 11.7235 96.4811 11.9091C96.0076 12.0909 95.4754 12.1818 94.8845 12.1818ZM100.618 12V3.27273H101.913V4.63636H102.027C102.209 4.17045 102.502 3.80871 102.908 3.55114C103.313 3.28977 103.8 3.15909 104.368 3.15909C104.944 3.15909 105.423 3.28977 105.805 3.55114C106.192 3.80871 106.493 4.17045 106.709 4.63636H106.8C107.023 4.18561 107.358 3.82765 107.805 3.5625C108.252 3.29356 108.788 3.15909 109.413 3.15909C110.194 3.15909 110.832 3.40341 111.328 3.89205C111.824 4.37689 112.072 5.13258 112.072 6.15909V12H110.732V6.15909C110.732 5.51515 110.555 5.05492 110.203 4.77841C109.851 4.50189 109.436 4.36364 108.959 4.36364C108.345 4.36364 107.87 4.54924 107.533 4.92045C107.196 5.28788 107.027 5.75379 107.027 6.31818V12H105.663V6.02273C105.663 5.52652 105.502 5.12689 105.18 4.82386C104.858 4.51705 104.444 4.36364 103.936 4.36364C103.588 4.36364 103.262 4.45644 102.959 4.64205C102.66 4.82765 102.417 5.08523 102.232 5.41477C102.05 5.74053 101.959 6.11742 101.959 6.54545V12H100.618ZM115.155 15.2727C114.928 15.2727 114.725 15.2538 114.547 15.2159C114.369 15.1818 114.246 15.1477 114.178 15.1136L114.519 13.9318C114.845 14.0152 115.133 14.0455 115.383 14.0227C115.633 14 115.854 13.8883 116.047 13.6875C116.244 13.4905 116.424 13.1705 116.587 12.7273L116.837 12.0455L113.61 3.27273H115.064L117.473 10.2273H117.564L119.973 3.27273H121.428L117.723 13.2727C117.557 13.7235 117.35 14.0966 117.104 14.392C116.858 14.6913 116.572 14.9129 116.246 15.0568C115.924 15.2008 115.561 15.2727 115.155 15.2727Z" fill="black"/>
</svg>
