<svg width="19" height="15" viewBox="0 0 19 15" fill="none" xmlns="http://www.w3.org/2000/svg">
<path d="M6.39758 14.6612C12.9428 14.6612 16.5238 9.2372 16.5238 4.53496C16.5238 4.38247 16.5204 4.2266 16.5137 4.07412C17.2103 3.57034 17.8114 2.94634 18.2889 2.23144C17.6401 2.52009 16.9513 2.70861 16.246 2.79055C16.9886 2.34538 17.5447 1.64603 17.8111 0.822161C17.1124 1.23622 16.3484 1.52831 15.5517 1.68589C15.0148 1.1155 14.3051 0.737836 13.5321 0.611284C12.7591 0.484732 11.966 0.616344 11.2753 0.98577C10.5846 1.3552 10.0349 1.94186 9.71105 2.65506C9.38724 3.36827 9.30738 4.16828 9.48384 4.93141C8.06913 4.86042 6.68513 4.49292 5.42156 3.85273C4.15799 3.21254 3.04307 2.31395 2.14906 1.21523C1.69468 1.99864 1.55563 2.92566 1.76019 3.8079C1.96475 4.69014 2.49756 5.4614 3.25033 5.96491C2.68519 5.94697 2.13244 5.79481 1.63773 5.52102V5.56507C1.63723 6.38719 1.92144 7.18413 2.44207 7.8204C2.9627 8.45667 3.68761 8.89301 4.49357 9.05524C3.97006 9.19847 3.42062 9.21934 2.88776 9.11623C3.11518 9.82327 3.55767 10.4417 4.15347 10.8851C4.74927 11.3286 5.46865 11.5749 6.21121 11.5898C4.95056 12.5801 3.39329 13.1172 1.79021 13.1147C1.50592 13.1142 1.22191 13.0968 0.939697 13.0625C2.56825 14.1073 4.46269 14.6622 6.39758 14.6612Z" fill="#121212"/>
</svg>
