<svg width="3330" height="645" viewBox="0 0 3330 645" fill="none" xmlns="http://www.w3.org/2000/svg">
<path d="M327.418 472H298.855V334.253C298.855 316.747 302.08 301.39 308.53 288.184C314.98 274.67 324.193 264.228 336.171 256.857C348.456 249.179 363.199 245.34 380.398 245.34C387.462 245.34 394.219 246.107 400.668 247.643C407.118 248.872 413.26 250.868 419.096 253.632V282.656C413.568 279.277 407.732 276.82 401.59 275.285C395.447 273.749 389.151 272.981 382.701 272.981C365.809 272.981 352.296 278.663 342.16 290.027C332.332 301.39 327.418 316.593 327.418 335.635V472ZM566.283 449.426C582.561 449.426 596.382 445.28 607.746 436.987C619.416 428.695 628.17 417.792 634.005 404.278C640.148 390.458 643.219 375.562 643.219 359.591V248.564H671.782V362.816C671.782 384.315 667.482 403.664 658.882 420.863C650.59 438.062 638.612 451.73 622.948 461.865C607.285 471.693 588.397 476.607 566.283 476.607C544.784 476.607 526.203 471.539 510.54 461.404C494.876 451.269 482.898 437.602 474.606 420.403C466.313 403.203 462.167 383.854 462.167 362.355V248.564H490.73V360.052C490.73 375.715 493.648 390.458 499.483 404.278C505.318 417.792 513.918 428.695 525.282 436.987C536.646 445.28 550.313 449.426 566.283 449.426ZM835.896 477.068C820.233 477.068 806.719 473.843 795.355 467.393C784.299 460.943 775.699 451.883 769.556 440.212C763.721 428.234 760.803 414.414 760.803 398.75V189.135H789.366V397.829C789.366 414.414 793.82 427.313 802.726 436.527C811.633 445.741 823.457 450.347 838.199 450.347C846.185 450.347 853.863 448.965 861.234 446.201C868.605 443.437 875.055 439.752 880.583 435.145V462.786C874.748 467.086 867.837 470.464 859.852 472.921C852.174 475.686 844.188 477.068 835.896 477.068ZM880.583 274.363H713.352V248.564H880.583V274.363ZM1017.29 476.146C998.551 476.146 981.659 472.154 966.61 464.168C951.561 455.876 939.89 443.591 931.598 427.313L955.093 414.414C961.85 427.313 970.296 436.373 980.431 441.594C990.873 446.816 1002.85 449.426 1016.36 449.426C1026.5 449.426 1035.71 448.044 1044.01 445.28C1052.3 442.209 1058.9 437.909 1063.82 432.381C1068.73 426.545 1071.19 419.328 1071.19 410.728C1071.19 401.207 1067.96 394.143 1061.51 389.536C1055.06 384.622 1046.77 380.937 1036.64 378.48C1026.81 375.715 1016.21 373.105 1004.85 370.648C993.484 368.191 982.734 364.812 972.599 360.513C962.771 356.213 954.632 350.07 948.182 342.085C941.733 334.1 938.508 323.043 938.508 308.915C938.508 296.323 941.886 285.266 948.643 275.745C955.707 266.224 965.075 258.853 976.745 253.632C988.416 248.104 1001.32 245.34 1015.44 245.34C1027.73 245.34 1038.79 247.029 1048.61 250.407C1058.75 253.786 1067.66 258.7 1075.33 265.149C1083.01 271.292 1089.31 278.817 1094.22 287.723L1070.73 301.083C1064.89 289.72 1057.21 282.041 1047.69 278.049C1038.17 274.056 1027.58 272.06 1015.9 272.06C1007.61 272.06 999.78 273.595 992.409 276.667C985.038 279.431 978.895 283.577 973.981 289.105C969.374 294.327 967.071 300.776 967.071 308.454C967.071 317.361 970.296 324.271 976.745 329.186C983.195 333.792 991.334 337.478 1001.16 340.242C1011.3 343.006 1022.05 345.617 1033.41 348.074C1044.77 350.531 1055.37 353.909 1065.2 358.209C1075.33 362.509 1083.63 368.805 1090.08 377.097C1096.53 385.083 1099.75 396.139 1099.75 410.267C1099.75 423.781 1095.91 435.452 1088.23 445.28C1080.86 455.108 1070.88 462.786 1058.29 468.314C1045.7 473.536 1032.03 476.146 1017.29 476.146Z" fill="black"/>
<path d="M327.418 472V474H329.418V472H327.418ZM298.855 472H296.855V474H298.855V472ZM308.53 288.184L310.327 289.062L310.331 289.054L310.335 289.045L308.53 288.184ZM336.171 256.857L337.22 258.56L337.231 258.553L336.171 256.857ZM400.668 247.643L400.205 249.589L400.249 249.599L400.294 249.608L400.668 247.643ZM419.096 253.632H421.096V252.366L419.952 251.825L419.096 253.632ZM419.096 282.656L418.053 284.362L421.096 286.222V282.656H419.096ZM401.59 275.285L401.105 277.225L401.59 275.285ZM342.16 290.027L340.668 288.695L340.658 288.707L340.648 288.718L342.16 290.027ZM327.418 470H298.855V474H327.418V470ZM300.855 472V334.253H296.855V472H300.855ZM300.855 334.253C300.855 316.993 304.034 301.947 310.327 289.062L306.733 287.306C300.126 300.834 296.855 316.5 296.855 334.253H300.855ZM310.335 289.045C316.63 275.856 325.591 265.716 337.22 258.56L335.123 255.154C322.796 262.74 313.329 273.485 306.725 287.323L310.335 289.045ZM337.231 258.553C349.143 251.108 363.502 247.34 380.398 247.34V243.34C362.895 243.34 347.77 247.25 335.111 255.161L337.231 258.553ZM380.398 247.34C387.316 247.34 393.917 248.091 400.205 249.589L401.131 245.697C394.52 244.123 387.608 243.34 380.398 243.34V247.34ZM400.294 249.608C406.58 250.805 412.56 252.749 418.24 255.44L419.952 251.825C413.961 248.987 407.656 246.938 401.042 245.678L400.294 249.608ZM417.096 253.632V282.656H421.096V253.632H417.096ZM420.139 280.949C414.442 277.467 408.419 274.93 402.075 273.344L401.105 277.225C407.046 278.71 412.694 281.087 418.053 284.362L420.139 280.949ZM402.075 273.344C395.771 271.768 389.311 270.981 382.701 270.981V274.981C388.99 274.981 395.124 275.73 401.105 277.225L402.075 273.344ZM382.701 270.981C365.309 270.981 351.226 276.857 340.668 288.695L343.653 291.358C353.365 280.469 366.31 274.981 382.701 274.981V270.981ZM340.648 288.718C330.428 300.534 325.418 316.245 325.418 335.635H329.418C329.418 316.942 334.236 302.246 343.673 291.335L340.648 288.718ZM325.418 335.635V472H329.418V335.635H325.418ZM607.746 436.987L606.587 435.357L606.577 435.364L606.567 435.372L607.746 436.987ZM634.005 404.278L632.177 403.466L632.173 403.476L632.169 403.485L634.005 404.278ZM643.219 248.564V246.564H641.219V248.564H643.219ZM671.782 248.564H673.782V246.564H671.782V248.564ZM658.882 420.863L657.094 419.969L657.087 419.982L657.081 419.995L658.882 420.863ZM622.948 461.865L624.011 463.559L624.023 463.551L624.035 463.544L622.948 461.865ZM510.54 461.404L509.453 463.083L510.54 461.404ZM474.606 420.403L476.407 419.534L474.606 420.403ZM462.167 248.564V246.564H460.167V248.564H462.167ZM490.73 248.564H492.73V246.564H490.73V248.564ZM499.483 404.278L497.641 405.056L497.644 405.064L497.647 405.071L499.483 404.278ZM566.283 451.426C582.916 451.426 597.167 447.183 608.925 438.603L606.567 435.372C595.597 443.377 582.206 447.426 566.283 447.426V451.426ZM608.904 438.618C620.882 430.107 629.865 418.911 635.841 405.071L632.169 403.485C626.474 416.673 617.951 427.283 606.587 435.357L608.904 438.618ZM635.833 405.091C642.095 391 645.219 375.826 645.219 359.591H641.219C641.219 375.298 638.2 389.915 632.177 403.466L635.833 405.091ZM645.219 359.591V248.564H641.219V359.591H645.219ZM643.219 250.564H671.782V246.564H643.219V250.564ZM669.782 248.564V362.816H673.782V248.564H669.782ZM669.782 362.816C669.782 384.042 665.539 403.079 657.094 419.969L660.671 421.758C669.425 404.249 673.782 384.588 673.782 362.816H669.782ZM657.081 419.995C648.944 436.871 637.21 450.255 621.862 460.186L624.035 463.544C640.014 453.204 652.236 439.253 660.684 421.732L657.081 419.995ZM621.885 460.171C606.598 469.763 588.095 474.607 566.283 474.607V478.607C588.698 478.607 607.972 473.623 624.011 463.559L621.885 460.171ZM566.283 474.607C545.11 474.607 526.919 469.62 511.626 459.725L509.453 463.083C525.487 473.458 544.459 478.607 566.283 478.607V474.607ZM511.626 459.725C496.278 449.794 484.544 436.411 476.407 419.534L472.804 421.271C481.252 438.793 493.474 452.744 509.453 463.083L511.626 459.725ZM476.407 419.534C468.261 402.638 464.167 383.592 464.167 362.355H460.167C460.167 384.117 464.365 403.769 472.804 421.271L476.407 419.534ZM464.167 362.355V248.564H460.167V362.355H464.167ZM462.167 250.564H490.73V246.564H462.167V250.564ZM488.73 248.564V360.052H492.73V248.564H488.73ZM488.73 360.052C488.73 375.971 491.697 390.978 497.641 405.056L501.326 403.5C495.599 389.937 492.73 375.46 492.73 360.052H488.73ZM497.647 405.071C503.617 418.897 512.437 430.09 524.103 438.603L526.461 435.372C515.399 427.3 507.02 416.687 501.319 403.485L497.647 405.071ZM524.103 438.603C535.854 447.178 549.949 451.426 566.283 451.426V447.426C550.677 447.426 537.437 443.381 526.461 435.372L524.103 438.603ZM795.355 467.393L794.347 469.121L794.358 469.127L794.368 469.132L795.355 467.393ZM769.556 440.212L767.758 441.088L767.772 441.116L767.787 441.144L769.556 440.212ZM760.803 189.135V187.135H758.803V189.135H760.803ZM789.366 189.135H791.366V187.135H789.366V189.135ZM802.726 436.527L804.164 435.137L802.726 436.527ZM861.234 446.201L861.936 448.074L861.234 446.201ZM880.583 435.145H882.583V430.875L879.303 433.608L880.583 435.145ZM880.583 462.786L881.77 464.396L882.583 463.797V462.786H880.583ZM859.852 472.921L859.264 471.01L859.219 471.024L859.175 471.04L859.852 472.921ZM880.583 274.363V276.363H882.583V274.363H880.583ZM713.352 274.363H711.352V276.363H713.352V274.363ZM713.352 248.564V246.564H711.352V248.564H713.352ZM880.583 248.564H882.583V246.564H880.583V248.564ZM835.896 475.068C820.51 475.068 807.35 471.902 796.342 465.654L794.368 469.132C806.087 475.784 819.955 479.068 835.896 479.068V475.068ZM796.363 465.666C785.64 459.411 777.3 450.631 771.326 439.281L767.787 441.144C774.098 453.135 782.957 462.476 794.347 469.121L796.363 465.666ZM771.354 439.336C765.673 427.675 762.803 414.163 762.803 398.75H758.803C758.803 414.664 761.769 428.793 767.758 441.088L771.354 439.336ZM762.803 398.75V189.135H758.803V398.75H762.803ZM760.803 191.135H789.366V187.135H760.803V191.135ZM787.366 189.135V397.829H791.366V189.135H787.366ZM787.366 397.829C787.366 414.774 791.924 428.23 801.288 437.917L804.164 435.137C795.715 426.396 791.366 414.053 791.366 397.829H787.366ZM801.288 437.917C810.629 447.58 823.004 452.347 838.199 452.347V448.347C823.911 448.347 812.636 443.901 804.164 435.137L801.288 437.917ZM838.199 452.347C846.421 452.347 854.337 450.923 861.936 448.074L860.532 444.329C853.389 447.007 845.948 448.347 838.199 448.347V452.347ZM861.936 448.074C869.498 445.238 876.147 441.445 881.864 436.681L879.303 433.608C873.962 438.059 867.712 441.636 860.532 444.329L861.936 448.074ZM878.583 435.145V462.786H882.583V435.145H878.583ZM879.397 461.176C873.768 465.324 867.066 468.609 859.264 471.01L860.44 474.833C868.608 472.32 875.728 468.848 881.77 464.396L879.397 461.176ZM859.175 471.04C851.717 473.724 843.961 475.068 835.896 475.068V479.068C844.416 479.068 852.63 477.647 860.529 474.803L859.175 471.04ZM880.583 272.363H713.352V276.363H880.583V272.363ZM715.352 274.363V248.564H711.352V274.363H715.352ZM713.352 250.564H880.583V246.564H713.352V250.564ZM878.583 248.564V274.363H882.583V248.564H878.583ZM966.61 464.168L965.645 465.92L965.659 465.928L965.673 465.935L966.61 464.168ZM931.598 427.313L930.635 425.56L928.935 426.493L929.815 428.221L931.598 427.313ZM955.093 414.414L956.865 413.486L955.918 411.679L954.13 412.66L955.093 414.414ZM980.431 441.594L979.515 443.372L979.526 443.378L979.536 443.383L980.431 441.594ZM1044.01 445.28L1044.64 447.177L1044.67 447.167L1044.7 447.155L1044.01 445.28ZM1063.82 432.38L1065.31 433.709L1065.33 433.689L1065.35 433.669L1063.82 432.38ZM1061.51 389.536L1060.3 391.127L1060.33 391.146L1060.35 391.164L1061.51 389.536ZM1036.64 378.48L1036.09 380.405L1036.13 380.415L1036.16 380.423L1036.64 378.48ZM972.599 360.513L971.797 362.345L971.808 362.349L971.818 362.354L972.599 360.513ZM948.182 342.085L946.627 343.342L948.182 342.085ZM948.643 275.745L947.037 274.554L947.024 274.571L947.012 274.588L948.643 275.745ZM976.745 253.632L977.562 255.458L977.582 255.449L977.602 255.44L976.745 253.632ZM1048.61 250.407L1047.96 252.299L1047.97 252.302L1047.98 252.305L1048.61 250.407ZM1075.33 265.149L1074.05 266.681L1074.07 266.696L1074.08 266.711L1075.33 265.149ZM1094.22 287.723L1095.21 289.462L1096.93 288.486L1095.97 286.757L1094.22 287.723ZM1070.73 301.083L1068.95 301.997L1069.9 303.854L1071.72 302.822L1070.73 301.083ZM1047.69 278.049L1048.47 276.204L1047.69 278.049ZM992.409 276.667L993.111 278.539L993.145 278.527L993.178 278.513L992.409 276.667ZM973.981 289.105L972.486 287.777L972.482 287.782L973.981 289.105ZM976.745 329.186L975.533 330.776L975.558 330.795L975.583 330.813L976.745 329.186ZM1001.16 340.242L1000.62 342.167L1000.63 342.17L1000.64 342.172L1001.16 340.242ZM1033.41 348.074L1033.83 346.119L1033.41 348.074ZM1065.2 358.209L1064.4 360.041L1064.41 360.046L1064.42 360.05L1065.2 358.209ZM1090.08 377.097L1088.5 378.325L1088.51 378.34L1088.52 378.354L1090.08 377.097ZM1088.23 445.28L1086.66 444.049L1086.64 444.064L1086.63 444.08L1088.23 445.28ZM1058.29 468.314L1059.05 470.162L1059.07 470.154L1059.09 470.146L1058.29 468.314ZM1017.29 474.146C998.845 474.146 982.28 470.219 967.548 462.402L965.673 465.935C981.039 474.088 998.258 478.146 1017.29 478.146V474.146ZM967.575 462.417C952.899 454.33 941.503 442.35 933.38 426.405L929.815 428.221C938.278 444.831 950.222 457.422 965.645 465.92L967.575 462.417ZM932.56 429.066L956.055 416.167L954.13 412.66L930.635 425.56L932.56 429.066ZM953.321 415.342C960.216 428.504 968.924 437.916 979.515 443.372L981.347 439.816C971.667 434.83 963.483 426.121 956.865 413.486L953.321 415.342ZM979.536 443.383C990.297 448.764 1002.59 451.426 1016.36 451.426V447.426C1003.11 447.426 991.449 444.867 981.325 439.805L979.536 443.383ZM1016.36 451.426C1026.68 451.426 1036.11 450.019 1044.64 447.177L1043.37 443.383C1035.32 446.069 1026.32 447.426 1016.36 447.426V451.426ZM1044.7 447.155C1053.24 443.992 1060.14 439.526 1065.31 433.709L1062.32 431.052C1057.66 436.291 1051.36 440.425 1043.31 443.404L1044.7 447.155ZM1065.35 433.669C1070.6 427.427 1073.19 419.735 1073.19 410.728H1069.19C1069.19 418.92 1066.86 425.663 1062.29 431.092L1065.35 433.669ZM1073.19 410.728C1073.19 400.708 1069.76 392.969 1062.68 387.909L1060.35 391.164C1066.16 395.317 1069.19 401.706 1069.19 410.728H1073.19ZM1062.72 387.945C1056 382.823 1047.44 379.04 1037.11 376.536L1036.16 380.423C1046.1 382.833 1054.12 386.421 1060.3 391.127L1062.72 387.945ZM1037.18 376.554C1027.3 373.778 1016.67 371.157 1005.27 368.693L1004.42 372.603C1015.75 375.052 1026.31 377.653 1036.09 380.405L1037.18 376.554ZM1005.27 368.693C994.022 366.261 983.394 362.919 973.38 358.671L971.818 362.354C982.075 366.705 992.945 370.121 1004.42 372.603L1005.27 368.693ZM973.401 358.68C963.853 354.503 955.977 348.553 949.738 340.828L946.627 343.342C953.287 351.588 961.689 357.922 971.797 362.345L973.401 358.68ZM949.738 340.828C943.667 333.312 940.508 322.756 940.508 308.915H936.508C936.508 323.33 939.798 334.887 946.627 343.342L949.738 340.828ZM940.508 308.915C940.508 296.703 943.777 286.059 950.274 276.903L947.012 274.588C939.996 284.474 936.508 295.942 936.508 308.915H940.508ZM950.249 276.937C957.093 267.713 966.179 260.55 977.562 255.458L975.929 251.806C963.97 257.156 954.321 264.736 947.037 274.554L950.249 276.937ZM977.602 255.44C988.98 250.05 1001.58 247.34 1015.44 247.34V243.34C1001.05 243.34 987.852 246.158 975.889 251.825L977.602 255.44ZM1015.44 247.34C1027.55 247.34 1038.38 249.004 1047.96 252.299L1049.26 248.516C1039.19 245.054 1027.91 243.34 1015.44 243.34V247.34ZM1047.98 252.305C1057.89 255.609 1066.57 260.404 1074.05 266.681L1076.62 263.618C1068.74 256.996 1059.6 251.963 1049.25 248.51L1047.98 252.305ZM1074.08 266.711C1081.55 272.684 1087.68 280.004 1092.47 288.689L1095.97 286.757C1090.94 277.629 1084.47 269.9 1076.58 263.588L1074.08 266.711ZM1093.23 285.985L1069.74 299.345L1071.72 302.822L1095.21 289.462L1093.23 285.985ZM1072.51 300.17C1066.51 288.49 1058.52 280.419 1048.47 276.204L1046.92 279.893C1055.91 283.663 1063.27 290.949 1068.95 301.997L1072.51 300.17ZM1048.47 276.204C1038.67 272.096 1027.81 270.06 1015.9 270.06V274.06C1027.34 274.06 1037.67 276.016 1046.92 279.893L1048.47 276.204ZM1015.9 270.06C1007.36 270.06 999.264 271.644 991.64 274.82L993.178 278.513C1000.3 275.547 1007.87 274.06 1015.9 274.06V270.06ZM991.707 274.794C984.051 277.665 977.63 281.99 972.486 287.777L975.476 290.434C980.16 285.164 986.024 281.197 993.111 278.539L991.707 274.794ZM972.482 287.782C967.518 293.407 965.071 300.343 965.071 308.454H969.071C969.071 301.21 971.23 295.246 975.481 290.429L972.482 287.782ZM965.071 308.454C965.071 317.915 968.533 325.443 975.533 330.776L977.957 327.595C972.058 323.1 969.071 316.808 969.071 308.454H965.071ZM975.583 330.813C982.266 335.587 990.631 339.358 1000.62 342.167L1001.7 338.317C992.037 335.598 984.124 331.998 977.908 327.558L975.583 330.813ZM1000.64 342.172C1010.81 344.946 1021.59 347.565 1032.99 350.029L1033.83 346.119C1022.5 343.669 1011.79 341.066 1001.69 338.313L1000.64 342.172ZM1032.99 350.029C1044.23 352.46 1054.7 355.799 1064.4 360.041L1066 356.377C1056.04 352.019 1045.32 348.602 1033.83 346.119L1032.99 350.029ZM1064.42 360.05C1074.25 364.224 1082.27 370.315 1088.5 378.325L1091.65 375.87C1084.99 367.295 1076.41 360.794 1065.98 356.368L1064.42 360.05ZM1088.52 378.354C1094.59 385.87 1097.75 396.426 1097.75 410.267H1101.75C1101.75 395.853 1098.46 384.295 1091.63 375.841L1088.52 378.354ZM1097.75 410.267C1097.75 423.374 1094.04 434.602 1086.66 444.049L1089.81 446.511C1097.79 436.301 1101.75 424.187 1101.75 410.267H1097.75ZM1086.63 444.08C1079.49 453.601 1069.8 461.076 1057.48 466.483L1059.09 470.146C1071.96 464.496 1082.23 456.615 1089.83 446.48L1086.63 444.08ZM1057.52 466.467C1045.19 471.579 1031.79 474.146 1017.29 474.146V478.146C1032.27 478.146 1046.2 475.492 1059.05 470.162L1057.52 466.467Z" fill="black"/>
<path fill-rule="evenodd" clip-rule="evenodd" d="M33.7252 176.969C31.0643 176.969 28.9073 179.131 28.9073 181.797V211.153C28.9073 213.819 31.0643 215.981 33.7252 215.981H110.811C118.794 215.981 125.265 222.466 125.265 230.466C125.265 238.465 118.794 244.95 110.811 244.95H33.7252C15.0993 244.95 0 229.819 0 211.153V181.797C0 163.132 15.0993 148 33.7252 148H257.275C275.901 148 291 163.132 291 181.797V211.153C291 229.819 275.901 244.95 257.275 244.95H193.872V440.203C193.872 458.868 178.772 474 160.146 474H132.395C113.769 474 98.6702 458.868 98.6702 440.203V282.394C98.6702 274.394 105.141 267.91 113.124 267.91C121.106 267.91 127.577 274.394 127.577 282.394V440.203C127.577 442.869 129.735 445.031 132.395 445.031H160.146C162.807 445.031 164.964 442.869 164.964 440.203V231.624C164.964 228.407 166.011 225.434 167.783 223.03C170.308 218.807 174.919 215.981 180.189 215.981H257.275C259.936 215.981 262.093 213.819 262.093 211.153V181.797C262.093 179.131 259.936 176.969 257.275 176.969H33.7252Z" fill="black"/>
<path d="M1453.78 378.019L1271.35 378.48V362.816H1453.78V378.019ZM1231.73 472L1319.72 193.742C1323.41 182.686 1328.94 174.547 1336.31 169.325C1343.68 163.797 1352.59 161.033 1363.03 161.033C1373.47 161.033 1382.38 163.797 1389.75 169.325C1397.12 174.547 1402.49 182.686 1405.87 193.742L1493.86 472H1477.28L1391.13 198.349C1386.52 183.607 1377.16 176.236 1363.03 176.236C1348.59 176.236 1339.07 183.607 1334.47 198.349L1248.78 472H1231.73ZM1647.37 476.146C1632.63 476.146 1618.5 473.229 1604.99 467.393C1591.78 461.251 1579.95 452.958 1569.51 442.516C1559.38 432.073 1551.24 419.942 1545.1 406.121C1539.26 391.993 1536.34 376.944 1536.34 360.973C1536.34 345.003 1539.26 330.107 1545.1 316.286C1551.24 302.158 1559.38 289.873 1569.51 279.431C1579.95 268.988 1591.78 260.85 1604.99 255.014C1618.5 248.872 1632.63 245.8 1647.37 245.8C1666.41 245.8 1684.07 250.1 1700.35 258.7C1716.93 266.992 1730.29 280.045 1740.43 297.858L1726.61 306.151C1717.7 290.487 1706.34 279.124 1692.52 272.06C1678.7 264.689 1663.65 261.003 1647.37 261.003C1630.48 261.003 1614.81 265.61 1600.38 274.824C1586.25 283.731 1574.73 295.709 1565.83 310.758C1557.23 325.807 1552.93 342.546 1552.93 360.973C1552.93 379.094 1557.23 395.832 1565.83 411.189C1574.73 426.238 1586.25 438.216 1600.38 447.123C1614.81 456.029 1630.48 460.483 1647.37 460.483C1663.65 460.483 1678.7 456.951 1692.52 449.887C1706.34 442.823 1717.7 431.459 1726.61 415.796L1740.43 424.088C1730.29 441.901 1716.93 455.108 1700.35 463.708C1684.07 472 1666.41 476.146 1647.37 476.146ZM1894.43 476.146C1873.23 476.146 1854.04 470.925 1836.84 460.483C1819.64 450.04 1805.97 436.066 1795.84 418.56C1785.7 401.053 1780.63 381.704 1780.63 360.513C1780.63 339.628 1785.7 320.432 1795.84 302.926C1805.97 285.42 1819.64 271.599 1836.84 261.464C1854.35 251.021 1874 245.8 1895.81 245.8C1917.31 245.8 1936.66 250.868 1953.85 261.003C1971.36 271.138 1985.18 284.959 1995.32 302.465C2005.76 319.665 2010.98 339.014 2010.98 360.513V472H1995.32V384.929L2004.99 363.737C2004.99 384.315 2000.08 403.203 1990.25 420.403C1980.73 437.295 1967.68 450.808 1951.09 460.943C1934.51 471.079 1915.62 476.146 1894.43 476.146ZM1895.81 460.483C1914.24 460.483 1930.82 456.029 1945.56 447.123C1960.61 437.909 1972.59 425.777 1981.5 410.728C1990.4 395.679 1994.86 378.94 1994.86 360.513C1994.86 342.392 1990.4 325.807 1981.5 310.758C1972.59 295.709 1960.61 283.731 1945.56 274.824C1930.82 265.61 1914.24 261.003 1895.81 261.003C1877.69 261.003 1861.1 265.61 1846.05 274.824C1831 283.731 1819.03 295.709 1810.12 310.758C1801.52 325.807 1797.22 342.392 1797.22 360.513C1797.22 378.94 1801.52 395.679 1810.12 410.728C1819.03 425.777 1831 437.909 1846.05 447.123C1861.1 456.029 1877.69 460.483 1895.81 460.483ZM2188.24 476.607C2166.43 476.607 2146.78 471.386 2129.27 460.943C2112.07 450.501 2098.4 436.527 2088.27 419.02C2078.13 401.514 2073.07 382.319 2073.07 361.434C2073.07 339.935 2078.13 320.432 2088.27 302.926C2098.4 285.42 2112.07 271.599 2129.27 261.464C2146.78 251.021 2166.28 245.8 2187.78 245.8C2208.66 245.8 2227.4 250.868 2243.98 261.003C2260.57 270.831 2273.77 284.191 2283.6 301.083C2293.74 317.668 2298.8 336.096 2298.8 356.366L2286.83 335.175L2287.29 148.134H2303.41V361.434C2303.41 382.933 2298.19 402.436 2287.75 419.942C2277.61 437.141 2263.79 450.962 2246.29 461.404C2229.09 471.539 2209.74 476.607 2188.24 476.607ZM2188.24 460.943C2206.67 460.943 2223.25 456.49 2237.99 447.583C2253.04 438.369 2265.02 426.238 2273.93 411.189C2282.83 396.139 2287.29 379.555 2287.29 361.434C2287.29 343.006 2282.83 326.268 2273.93 311.219C2265.02 295.862 2253.04 283.731 2237.99 274.824C2223.25 265.61 2206.67 261.003 2188.24 261.003C2170.12 261.003 2153.53 265.61 2138.48 274.824C2123.43 283.731 2111.46 295.862 2102.55 311.219C2093.95 326.268 2089.65 343.006 2089.65 361.434C2089.65 379.555 2093.95 396.139 2102.55 411.189C2111.46 426.238 2123.43 438.369 2138.48 447.583C2153.53 456.49 2170.12 460.943 2188.24 460.943ZM2477.91 476.146C2456.71 476.146 2437.52 471.079 2420.32 460.943C2403.43 450.501 2390.07 436.68 2380.24 419.481C2370.41 401.975 2365.5 382.472 2365.5 360.973C2365.5 339.474 2369.95 320.125 2378.86 302.926C2388.07 285.42 2400.66 271.445 2416.63 261.003C2432.91 250.561 2451.65 245.34 2472.84 245.34C2493.72 245.34 2512 249.947 2527.66 259.16C2543.63 268.374 2555.92 281.12 2564.52 297.398C2573.42 313.676 2577.88 332.41 2577.88 353.602V365.58H2376.09L2382.54 348.995C2380.39 369.266 2383.16 387.847 2390.84 404.739C2398.51 421.631 2409.88 435.145 2424.93 445.28C2440.28 455.415 2457.94 460.483 2477.91 460.483C2494.18 460.483 2509.23 456.951 2523.05 449.887C2537.18 442.823 2548.85 431.613 2558.07 416.256L2570.97 424.088C2560.52 441.594 2547.16 454.647 2530.89 463.247C2514.61 471.846 2496.95 476.146 2477.91 476.146ZM2382.54 351.759H2561.75C2561.75 333.332 2557.91 317.361 2550.23 303.847C2542.56 290.334 2532.11 279.892 2518.91 272.52C2505.7 264.842 2490.34 261.003 2472.84 261.003C2455.64 261.003 2440.44 264.996 2427.23 272.981C2414.02 280.966 2403.58 291.869 2395.9 305.69C2388.22 319.511 2383.77 334.867 2382.54 351.759ZM2912.1 245.34C2932.06 245.34 2949.11 250.254 2963.23 260.082C2977.67 269.603 2988.57 282.656 2995.94 299.241C3003.62 315.518 3007.46 333.946 3007.46 354.524V472H2991.34V356.366C2991.34 339.474 2988.27 323.811 2982.12 309.376C2976.29 294.941 2967.38 283.27 2955.4 274.363C2943.73 265.456 2929.14 261.003 2911.64 261.003C2895.05 261.003 2880.92 265.303 2869.25 273.903C2857.58 282.195 2848.68 293.405 2842.53 307.533C2836.39 321.354 2833.32 336.864 2833.32 354.063V472H2817.19V354.524C2817.19 337.324 2813.97 321.661 2807.52 307.533C2801.38 293.405 2792.32 282.195 2780.34 273.903C2768.36 265.303 2753.93 261.003 2737.03 261.003C2719.53 261.003 2704.94 265.456 2693.27 274.363C2681.91 283.27 2673.31 294.941 2667.47 309.376C2661.63 323.504 2658.72 339.014 2658.72 355.906V472H2642.59V354.984C2642.59 334.1 2646.28 315.518 2653.65 299.241C2661.33 282.656 2672.08 269.603 2685.9 260.082C2700.03 250.254 2716.76 245.34 2736.11 245.34C2753.93 245.34 2769.59 249.332 2783.1 257.318C2796.62 264.996 2807.21 275.438 2814.89 288.645C2822.88 301.851 2827.18 316.9 2827.79 333.792H2823.18C2824.41 316.9 2828.71 301.851 2836.08 288.645C2843.76 275.438 2853.9 264.996 2866.49 257.318C2879.39 249.332 2894.59 245.34 2912.1 245.34ZM3180.15 578.42C3161.11 578.42 3142.52 574.12 3124.4 565.52C3106.59 557.228 3092.62 544.329 3082.48 526.822L3096.76 518.53C3105.67 534.193 3117.65 545.557 3132.7 552.621C3148.05 559.685 3163.87 563.217 3180.15 563.217C3200.42 563.217 3217 558.303 3229.9 548.475C3243.11 538.954 3252.94 526.055 3259.39 509.777C3266.14 493.806 3269.37 476.3 3269.06 457.258L3268.6 386.311L3277.81 367.423C3277.81 387.386 3273.98 405.66 3266.3 422.245C3258.93 438.523 3248.18 451.576 3234.05 461.404C3219.92 471.232 3202.57 476.146 3181.99 476.146C3161.11 476.146 3143.45 471.693 3129.01 462.786C3114.58 453.879 3103.52 441.441 3095.84 425.47C3088.47 409.499 3084.78 390.918 3084.78 369.726V249.947H3101.37V366.502C3101.37 394.45 3108.28 417.178 3122.1 434.684C3135.92 451.883 3156.19 460.483 3182.91 460.483C3201.34 460.483 3216.85 456.029 3229.44 447.123C3242.34 437.909 3252.02 425.777 3258.47 410.728C3265.22 395.372 3268.6 378.633 3268.6 360.513V249.947H3285.19V457.258C3285.19 480.292 3281.35 501.024 3273.67 519.451C3265.99 537.879 3254.32 552.314 3238.66 562.756C3223.3 573.199 3203.8 578.42 3180.15 578.42Z" fill="black"/>
</svg>
